<?xml version="1.0" encoding="UTF-8"?>
<svg id="Layer_2" data-name="Layer 2" xmlns="http://www.w3.org/2000/svg" viewBox="0 0 37.43 36.2">
  <defs>
    <style>
      .cls-1 {
        fill: #6366f1;
      }

      .cls-2 {
        fill: #1abbbc;
      }

      .cls-3 {
        fill: #f37d53;
      }
    </style>
  </defs>
  <g id="_02_headerbar_copy" data-name="02_headerbar copy">
    <g>
      <path class="cls-1" d="M13.67,36.2c-4.8,0-9.17-2.44-11.66-6.52C-1.59,23.81-.24,16.15,5.15,11.86l1.32-1.05-.16,1.67c-.05.56-.07,1.05-.06,1.5.01.54.07,1.1.19,1.77l.06.33-.21.25c-2.67,3.19-3.01,7.7-.84,11.24,1.76,2.88,4.84,4.6,8.24,4.6.73,0,1.45-.08,2.16-.24l.32-.07.26.2c.55.41,1.02.72,1.5.98.42.23.87.44,1.36.63l1.57.62-1.53.7c-1.78.81-3.68,1.22-5.63,1.22h0Z"/>
      <path class="cls-1" d="M15.99,32.63c-4.22.97-8.78-.78-11.17-4.68-2.38-3.89-1.88-8.75.91-12.07-.11-.62-.18-1.24-.2-1.88-.01-.54.02-1.07.07-1.59C.55,16.43-.84,23.67,2.61,29.31c3.45,5.63,10.53,7.69,16.4,5.02-.49-.19-.97-.41-1.44-.67-.56-.3-1.08-.66-1.58-1.03Z"/>
      <path class="cls-1" d="M7.41,13.8c-.01-1.14.15-2.27.48-3.36l.1-.32.3-.13c1.7-.73,3.5-1.1,5.35-1.1.44,0,.88.02,1.33.06l.97.09-.39.9c-.29.68-.38,1.43-.25,2.16l.16.92-.93-.09c-.3-.03-.6-.04-.9-.04-1.77,0-3.51.49-5.01,1.41l-.12.08-1.08.67v-1.27Z"/>
      <path class="cls-1" d="M14.6,12.23c-.16-.87-.05-1.77.3-2.57-2.11-.21-4.28.11-6.32.98-.31,1.01-.46,2.06-.45,3.14.04-.03.08-.06.12-.08,1.98-1.21,4.2-1.67,6.35-1.47Z"/>
      <path class="cls-3" d="M28.68,20.97c-.07-.17-.14-.33-.24-.49-.3-.49-.72-.9-1.25-1.23l-.58-.36.33-.6c.82-1.49,1.23-3.18,1.19-4.88v-.14s-.06-1.27-.06-1.27l1.11.62c.99.56,1.89,1.26,2.67,2.1l.23.24-.04.33c-.25,2.1-.95,4.06-2.09,5.81l-.73,1.12-.53-1.25Z"/>
      <path class="cls-3" d="M28.83,13.25c0,.05.01.1.01.15.05,1.86-.4,3.65-1.28,5.24.59.36,1.11.84,1.49,1.47.12.2.21.4.29.61,1.08-1.66,1.75-3.53,1.98-5.5-.72-.77-1.56-1.43-2.5-1.96Z"/>
      <path class="cls-3" d="M4.89,12.35C5.55,5.49,11.24.18,18.13,0h.36c6.71,0,12.51,5,13.5,11.64l.25,1.66-1.37-.97c-.47-.33-.87-.59-1.27-.81-.47-.26-.99-.49-1.63-.72l-.31-.11-.11-.31c-1.39-3.8-5.03-6.35-9.06-6.35h-.25c-1.7.05-3.35.53-4.78,1.41-.72.44-1.38.98-1.97,1.6-1.04,1.09-1.79,2.38-2.23,3.83l-.1.32-.3.13c-.62.27-1.13.52-1.58.8-.39.24-.79.52-1.23.87l-1.31,1.05.16-1.67Z"/>
      <path class="cls-3" d="M8.57,10.64c.46-1.52,1.27-2.93,2.39-4.11.64-.67,1.35-1.24,2.11-1.71,1.53-.94,3.29-1.46,5.13-1.51,4.56-.12,8.52,2.75,10,6.82.59.22,1.17.46,1.73.77.47.26.91.55,1.34.85-.95-6.37-6.54-11.2-13.14-11.03-6.6.17-11.93,5.28-12.55,11.7.41-.33.84-.64,1.3-.92.54-.33,1.11-.61,1.68-.85Z"/>
      <path class="cls-3" d="M5.03,16c-.13-.73-.2-1.38-.21-1.98-.01-.51,0-1.06.07-1.68l.03-.3.24-.19c.48-.39.93-.7,1.37-.97.52-.32,1.08-.6,1.77-.9l1.41-.6-.45,1.47c-.29.95-.43,1.94-.42,2.93v.4s-.33.21-.33.21c-.84.53-1.59,1.19-2.23,1.95l-.99,1.18-.26-1.52Z"/>
      <path class="cls-3" d="M5.73,15.88c.67-.8,1.47-1.51,2.39-2.09-.01-1.08.14-2.14.45-3.14-.57.24-1.13.52-1.68.85-.46.28-.89.59-1.3.92-.05.52-.08,1.05-.07,1.59.02.64.09,1.26.2,1.88Z"/>
      <path class="cls-2" d="M23.74,35.94c-1.72,0-3.4-.32-4.99-.95l-1.56-.62,1.53-.7c.53-.24.95-.46,1.34-.7.46-.28.92-.61,1.44-1.05l.25-.21.33.06c.56.1,1.13.15,1.7.15.92,0,1.84-.13,2.72-.4,2.47-.73,4.51-2.38,5.74-4.65,1.23-2.26,1.5-4.87.77-7.35-.43-1.44-1.17-2.74-2.2-3.84l-.23-.24.04-.33c.08-.67.11-1.24.1-1.78-.01-.45-.06-.93-.14-1.5l-.25-1.66,1.36.97c2.51,1.78,4.29,4.28,5.17,7.23,1.04,3.5.65,7.2-1.1,10.4-1.14,2.1-2.82,3.87-4.85,5.12-2.16,1.32-4.64,2.02-7.17,2.02h0Z"/>
      <path class="cls-2" d="M36.18,18.6c-.83-2.8-2.55-5.18-4.89-6.85.08.52.13,1.05.15,1.59.02.64-.03,1.26-.1,1.88,1.08,1.16,1.9,2.56,2.36,4.12.79,2.65.49,5.46-.83,7.89-1.32,2.43-3.51,4.2-6.17,4.99-1.57.46-3.18.54-4.75.26-.48.4-.98.78-1.52,1.11-.46.28-.94.52-1.42.74,3.86,1.52,8.13,1.06,11.53-1.02,1.87-1.15,3.48-2.79,4.6-4.85,1.65-3.04,2.02-6.54,1.04-9.86Z"/>
      <path class="cls-2" d="M28.46,13.86l-.08-.05c-1.43-.78-3.01-1.18-4.61-1.18l-1.09.03.09-.81c.08-.75-.06-1.49-.42-2.16l-.52-.98,1.1-.07c.28-.02.55-.03.83-.03,1.6,0,3.18.28,4.69.84l.31.11.11.31c.39,1.07.61,2.19.66,3.34l.05,1.27-1.13-.63Z"/>
      <path class="cls-2" d="M22.98,9.35c.43.82.59,1.71.49,2.57,1.8-.05,3.6.36,5.23,1.25.04.02.08.05.13.08-.04-1.09-.26-2.14-.62-3.12-1.68-.62-3.45-.88-5.23-.77Z"/>
      <path class="cls-2" d="M15.56,33.2c-1.86-1.39-3.34-3.25-4.28-5.37l-.46-1.04,1.26.04c.7,0,1.38-.19,1.97-.55l.67-.41.39.67c.88,1.8,2.28,3.26,4.04,4.22l.13.06,1.13.59-1.1.65c-.98.58-2.04,1.01-3.16,1.26l-.32.07-.26-.2Z"/>
      <path class="cls-2" d="M14.46,26.85s-.03.02-.04.03c-.78.48-1.64.68-2.49.66.9,2.02,2.29,3.76,4.06,5.09,1.02-.23,2.01-.62,2.95-1.18-.04-.02-.09-.04-.14-.07-1.91-1.04-3.4-2.62-4.34-4.53Z"/>
      <path class="cls-2" d="M18.75,34.99c-.55-.22-1.05-.45-1.52-.7-.54-.29-1.06-.64-1.67-1.09l-1.23-.92,1.5-.34c.97-.22,1.89-.59,2.75-1.1l.34-.2.35.19c.88.46,1.82.78,2.8.96l1.51.27-1.18.98c-.58.48-1.09.85-1.6,1.17-.44.27-.91.52-1.49.78l-.27.12-.28-.11Z"/>
      <path class="cls-2" d="M21.95,32.48c-1.04-.18-2.05-.53-3.01-1.03-.94.56-1.94.95-2.95,1.18.5.37,1.02.73,1.58,1.03.47.26.95.47,1.44.67.48-.22.96-.46,1.42-.74.54-.33,1.04-.71,1.52-1.11Z"/>
      <path class="cls-3" d="M30.81,15.7c-.68-.73-1.46-1.34-2.33-1.83l-.35-.2-.02-.4c-.04-.99-.23-1.97-.57-2.91l-.53-1.45,1.44.53c.71.26,1.28.52,1.82.81.45.25.9.53,1.42.9l.25.18.04.3c.09.63.14,1.16.16,1.67.02.6-.02,1.25-.11,1.98l-.18,1.52-1.05-1.12Z"/>
      <path class="cls-3" d="M28.21,10.13c.36.98.57,2.03.62,3.12.94.53,1.78,1.19,2.5,1.96.07-.62.12-1.25.1-1.88-.01-.54-.07-1.07-.15-1.59-.43-.31-.87-.6-1.34-.85-.56-.3-1.14-.55-1.73-.77Z"/>
      <path class="cls-3" d="M29.35,20.71c-.09-.21-.17-.41-.29-.61-.38-.63-.9-1.11-1.49-1.47-.54-.33-1.14-.54-1.77-.63-.88-.11-1.78.03-2.62.45-.1.05-.21.09-.31.15-1.78,1.09-2.51,3.21-1.95,5.12.11.37.25.73.46,1.07.29.47.66.86,1.07,1.18.25.19.5.36.78.49.81.4,1.72.55,2.61.43.59-.08,1.18-.28,1.72-.62,1.92-1.18,2.63-3.56,1.78-5.58Z"/>
      <path class="cls-1" d="M22.98,9.35c-.05-.09-.07-.18-.12-.26-1.3-2.12-4.07-2.78-6.19-1.49-.82.5-1.42,1.23-1.77,2.06-.35.8-.45,1.7-.3,2.57.04.24.1.47.18.7.1.29.24.58.41.86.31.5.7.92,1.15,1.25,1.37,1.02,3.25,1.19,4.82.34.07-.04.14-.06.21-.1.71-.44,1.24-1.05,1.61-1.73.27-.51.44-1.06.5-1.62.09-.86-.06-1.75-.49-2.57Z"/>
      <path class="cls-2" d="M15.91,20.7c-.49-.79-1.18-1.38-1.96-1.74-.81-.37-1.72-.49-2.61-.34-.55.09-1.09.28-1.6.59,0,0,0,0-.01,0-.81.49-1.4,1.21-1.76,2.01-.58,1.31-.53,2.87.27,4.18.82,1.34,2.24,2.1,3.7,2.14.85.03,1.71-.18,2.49-.66.02,0,.03-.02.04-.03.3-.19.56-.41.79-.64.65-.66,1.07-1.49,1.23-2.38.18-1.04.02-2.15-.58-3.13Z"/>
    </g>
  </g>
</svg>