<?xml version="1.0" encoding="UTF-8"?>
<svg id="Layer_2" data-name="Layer 2" xmlns="http://www.w3.org/2000/svg" viewBox="0 0 129.03 34.91">
  <defs>
    <style>
      .cls-1 {
        fill: #fff;
      }
    </style>
  </defs>
  <g id="_02_headerbar_copy" data-name="02_headerbar copy">
    <g>
      <path class="cls-1" d="M102.85,4.82c0,1.59-.35,2.74-1.06,3.44-.71.71-1.85,1.06-3.44,1.06s-2.74-.35-3.44-1.06c-.71-.7-1.06-1.85-1.06-3.44s.35-2.74,1.06-3.44c.7-.7,1.85-1.06,3.44-1.06s2.74.35,3.44,1.06c.71.71,1.06,1.85,1.06,3.44Z"/>
      <path class="cls-1" d="M88.97,10.62l-6.59,18.32-6.49-18.54h-5.34l9.2,23.78h5.11l7.72-19.96c-.82-.41-1.55-.9-2.14-1.49-.59-.58-1.07-1.3-1.48-2.11Z"/>
      <path class="cls-1" d="M97.42,15.48v18.7h4.83V15.47c-.77.08-1.57.13-2.44.13s-1.64-.05-2.39-.12Z"/>
      <g>
        <path class="cls-1" d="M15.73,15.92c1.44.25,2.65.59,3.63,1.04.98.44,1.77,1.02,2.37,1.73.6.71,1.03,1.55,1.29,2.53.26.98.39,2.13.39,3.45v.78c0,1.47-.2,2.76-.6,3.86s-1.07,2.02-2.02,2.76c-.95.74-2.21,1.29-3.77,1.66-1.56.37-3.51.55-5.84.55h-4.16c-1.83,0-4.16-.03-7.01-.09l.83-4.32c1.23.03,2.31.05,3.24.07.94.02,1.8.02,2.6.02h4.51c1.5,0,2.74-.07,3.7-.21s1.72-.38,2.28-.74c.55-.35.93-.83,1.13-1.43s.3-1.36.3-2.28c0-.8-.05-1.47-.16-2.02-.11-.55-.32-1.02-.64-1.4-.32-.38-.79-.7-1.4-.94-.61-.25-1.43-.46-2.44-.64l-6.21-1.01c-1.53-.25-2.8-.61-3.79-1.08-1-.48-1.78-1.06-2.35-1.75-.57-.69-.96-1.5-1.17-2.44-.21-.94-.32-2-.32-3.2v-.87c0-1.32.21-2.51.62-3.56s1.09-1.96,2.02-2.71c.94-.75,2.16-1.33,3.68-1.73,1.52-.4,3.4-.6,5.63-.6h4.55c.77,0,1.6,0,2.51.02.9.02,2,.04,3.29.07l-.83,4.32c-2.18-.06-4.03-.09-5.57-.09h-4.37c-1.35,0-2.46.07-3.33.21s-1.56.38-2.07.74c-.51.35-.85.81-1.04,1.38-.18.57-.28,1.28-.28,2.14,0,.74.05,1.37.16,1.89.11.52.31.97.62,1.33.31.37.75.67,1.33.92.58.25,1.35.44,2.3.6l6.39,1.06Z"/>
        <path class="cls-1" d="M38,34.91c-3.47,0-6.07-.58-7.82-1.75-1.75-1.17-2.62-3.16-2.62-5.98V10.4h4.83v15.82c0,.77.05,1.44.14,2.02.09.58.32,1.07.69,1.47.37.4.93.7,1.68.9.75.2,1.79.3,3.11.3s2.35-.1,3.08-.3c.74-.2,1.29-.5,1.66-.9.37-.4.6-.89.69-1.47.09-.58.14-1.26.14-2.02v-15.82h4.83v16.79c0,2.82-.87,4.81-2.62,5.98-1.75,1.17-4.34,1.75-7.77,1.75Z"/>
        <path class="cls-1" d="M53.73,34.18v-16.28c0-1.38.21-2.55.64-3.52.43-.97,1.04-1.75,1.82-2.35s1.72-1.04,2.83-1.31c1.1-.28,2.33-.41,3.68-.41h3.4c.8,0,1.46.02,1.98.05l-.83,4h-.46c-.28,0-.61,0-1.01-.02-.4-.02-.83-.02-1.29-.02h-1.33c-1.07,0-1.92.1-2.53.3-.61.2-1.07.5-1.38.9-.31.4-.5.89-.58,1.47-.08.58-.12,1.24-.12,1.98v15.23h-4.83Z"/>
        <path class="cls-1" d="M111.78,19.73l9.94-9.34h6.12l-11.55,10.53,12.74,13.25h-6.35l-10.9-11.45v11.45h-4.83V0h4.83v19.73Z"/>
      </g>
    </g>
  </g>
</svg>