<?xml version="1.0" encoding="UTF-8"?>
<svg id="Layer_2" data-name="Layer 2" xmlns="http://www.w3.org/2000/svg" viewBox="0 0 37.02 35.77">
  <defs>
    <style>
      .cls-1 {
        fill: #6366f1;
      }

      .cls-2 {
        fill: #1abbbc;
      }

      .cls-3 {
        fill: #f37d53;
      }
    </style>
  </defs>
  <g id="_02_headerbar_copy" data-name="02_headerbar copy">
    <g>
      <path class="cls-2" d="M36.46,18.25c-1.11-3.76-3.19-5.76-6.04-7.81.27,1.85.43,2.62.22,4.5l-.03.23.16.17c2.75,2.94,3.44,6.9,1.84,10.59-1.58,3.65-5.09,6.01-8.94,6.01-3.42,0-6.88-1.75-8.73-5.15,1.89-1.49,2.6-4.28,1.2-6.56-2.25-3.67-7-2.78-8.74.33-1.67,2.98.43,6.92,4.02,7.25.77,1.64,1.86,3.11,3.21,4.31.11.23,1.69,1.5,4.19,2.55h.02c1.51.57,3.09.85,4.7.85,2.5,0,4.94-.68,7.06-1.99,4.97-3.03,7.66-9.19,5.86-15.27Z"/>
      <path class="cls-3" d="M31.69,12.58h.02c0-.09-.09-.8-.16-1.33,0,0,0,0,0,0,0,0,0,0,0,0C30.47,4.82,24.82,0,18.29,0h-.36C11.23.18,5.68,5.29,4.93,11.93c1.3-.98,2.23-1.67,4.3-2.36,1.52-3.66,4.97-5.96,9.06-5.96,7.56,0,11.94,7.81,8.85,14.13-3.14-1.55-6.34.51-7.06,3.58-1.38,5.94,7.89,8.73,9.75,2.15.29-1.04.24-2.07-.1-2.99,1.15-1.87,1.67-3.62,1.93-5.66h0c.09-.84.09-1.57.04-2.25Z"/>
      <path class="cls-1" d="M13.95,12.51c.13.44.33.88.6,1.33,3.45,5.63,11.96.38,8.53-5.22-2.32-3.79-7.1-2.63-8.76.31-3.11-.19-5.88.61-8.32,2.18,0-.01,0-.02,0-.04-.49.39-.79.56-1.09.86,0,.03,0,.06,0,.08-10.22,9.41-3.08,23.75,8.56,23.75,1.86,0,3.66-.37,5.35-1.11-2.31-.97-4.07-2.3-4.19-2.55-10.21,1.31-15.38-12.39-6.44-18.11h0c.08-.05.09-.05.13-.08l-.03.02c1.99-1.23,3.76-1.5,5.66-1.43Z"/>
    </g>
  </g>
</svg>