<?xml version="1.0" encoding="UTF-8"?>
<svg id="Layer_2" data-name="Layer 2" xmlns="http://www.w3.org/2000/svg" viewBox="0 0 48.5 46.86">
  <defs>
    <style>
      .cls-1 {
        fill: #f37d53;
        stroke: #f37d53;
      }

      .cls-1, .cls-2, .cls-3, .cls-4 {
        stroke-miterlimit: 10;
        stroke-width: .5px;
      }

      .cls-2 {
        fill: #6366f1;
        stroke: #6366f1;
      }

      .cls-3 {
        stroke: #1abbbc;
      }

      .cls-3, .cls-4 {
        fill: #1abbbc;
      }

      .cls-4 {
        stroke: #17bcbc;
      }
    </style>
  </defs>
  <g id="Layer_9" data-name="Layer 9">
    <g>
      <path class="cls-2" d="M20.62,42.8c-5.63,1.29-11.71-1.05-14.89-6.24-3.18-5.19-2.5-11.67,1.21-16.09-.14-.82-.24-1.65-.27-2.5-.02-.72.02-1.42.09-2.12C.04,21.2-1.81,30.86,2.79,38.37c4.6,7.51,14.04,10.25,21.86,6.69-.65-.26-1.29-.55-1.92-.89-.75-.41-1.44-.87-2.11-1.37Z"/>
      <path class="cls-2" d="M18.76,15.61c-.21-1.17-.07-2.36.4-3.43-2.82-.27-5.71.14-8.43,1.3-.41,1.34-.62,2.75-.6,4.19.06-.04.11-.08.17-.11,2.64-1.61,5.6-2.22,8.47-1.96Z"/>
      <path class="cls-1" d="M37.74,16.96c0,.07.01.13.02.2.06,2.48-.54,4.87-1.7,6.99.78.48,1.47,1.12,1.99,1.96.16.26.27.54.39.81,1.44-2.21,2.33-4.71,2.64-7.34-.96-1.03-2.08-1.91-3.33-2.62Z"/>
      <path class="cls-1" d="M10.73,13.49c.62-2.03,1.69-3.9,3.19-5.48.85-.89,1.8-1.66,2.82-2.29,2.04-1.25,4.39-1.95,6.84-2.01,6.08-.16,11.35,3.67,13.33,9.09.78.29,1.55.62,2.3,1.02.63.34,1.22.73,1.79,1.14C39.74,6.46,32.29.03,23.49.26,14.69.48,7.59,7.3,6.76,15.85c.55-.44,1.12-.85,1.73-1.23.73-.44,1.48-.81,2.24-1.13Z"/>
      <path class="cls-1" d="M6.94,20.47c.89-1.07,1.96-2.01,3.19-2.79-.02-1.44.19-2.85.6-4.19-.76.33-1.51.69-2.24,1.13-.61.38-1.18.79-1.73,1.23-.07.7-.11,1.4-.09,2.12.02.85.12,1.68.27,2.5Z"/>
      <path class="cls-3" d="M47.53,24.1c-1.11-3.74-3.4-6.91-6.53-9.14.1.69.18,1.4.2,2.11.02.85-.04,1.68-.14,2.51,1.45,1.55,2.53,3.41,3.15,5.5,1.05,3.54.65,7.27-1.11,10.52-1.76,3.24-4.68,5.61-8.22,6.65-2.09.62-4.25.72-6.33.35-.64.53-1.3,1.03-2.03,1.48-.62.38-1.25.7-1.89.99,5.15,2.03,10.85,1.42,15.37-1.36,2.5-1.53,4.64-3.71,6.13-6.47,2.2-4.05,2.69-8.72,1.38-13.15Z"/>
      <path class="cls-3" d="M29.94,11.77c.57,1.09.78,2.27.66,3.43,2.41-.07,4.8.48,6.97,1.66.06.03.11.07.17.1-.06-1.46-.35-2.85-.82-4.16-2.24-.83-4.6-1.18-6.97-1.03Z"/>
      <path class="cls-3" d="M18.59,35.1s-.04.03-.06.05c-1.04.63-2.19.91-3.32.87,1.2,2.7,3.05,5.02,5.41,6.78,1.35-.31,2.68-.83,3.94-1.58-.06-.03-.12-.05-.18-.09-2.55-1.38-4.54-3.49-5.79-6.04Z"/>
      <path class="cls-4" d="M28.56,42.6c-1.38-.25-2.73-.7-4.01-1.37-1.26.74-2.58,1.26-3.94,1.58.67.5,1.36.97,2.11,1.37.63.34,1.27.63,1.92.89.64-.29,1.27-.61,1.89-.99.73-.44,1.39-.95,2.03-1.48Z"/>
      <path class="cls-1" d="M36.91,12.8c.48,1.31.76,2.7.82,4.16,1.26.71,2.37,1.59,3.33,2.62.1-.83.16-1.66.14-2.51-.02-.72-.09-1.42-.2-2.11-.57-.41-1.16-.79-1.79-1.14-.75-.41-1.52-.73-2.3-1.02Z"/>
      <path class="cls-1" d="M38.42,26.92c-.12-.27-.23-.55-.39-.81-.51-.83-1.2-1.48-1.99-1.96-.72-.44-1.52-.72-2.36-.83-1.17-.15-2.38.04-3.49.6-.14.07-.28.12-.42.2-2.37,1.45-3.35,4.28-2.59,6.82.15.49.33.97.61,1.43.38.63.88,1.14,1.43,1.57.33.26.67.48,1.04.66,1.07.53,2.29.74,3.49.57.79-.11,1.57-.38,2.3-.82,2.56-1.57,3.51-4.75,2.37-7.44Z"/>
      <path class="cls-2" d="M29.94,11.77c-.06-.11-.1-.23-.17-.34-1.73-2.83-5.42-3.71-8.25-1.98-1.1.67-1.89,1.64-2.36,2.74-.46,1.07-.6,2.26-.4,3.43.06.32.13.63.24.94.14.39.31.78.54,1.14.41.67.94,1.22,1.53,1.67,1.83,1.36,4.33,1.59,6.43.45.09-.05.19-.08.29-.14.95-.58,1.66-1.4,2.14-2.31.36-.68.58-1.41.66-2.17.12-1.15-.08-2.34-.66-3.43Z"/>
      <path class="cls-3" d="M20.51,26.9c-.65-1.06-1.57-1.84-2.62-2.32-1.08-.49-2.3-.65-3.48-.46-.73.12-1.46.38-2.13.79,0,0-.01,0-.02,0-1.08.66-1.87,1.61-2.34,2.68-.77,1.74-.71,3.82.36,5.57,1.1,1.79,2.98,2.79,4.93,2.86,1.13.04,2.28-.24,3.32-.87.02-.01.04-.03.06-.05.39-.25.74-.54,1.06-.86.87-.88,1.43-1.99,1.64-3.17.25-1.39.03-2.87-.77-4.17Z"/>
    </g>
  </g>
</svg>