<?xml version="1.0" encoding="UTF-8"?>
<svg id="Layer_2" data-name="Layer 2" xmlns="http://www.w3.org/2000/svg" viewBox="0 0 147.42 32.2">
  <defs>
    <style>
      .cls-1 {
        fill: #6366f1;
      }

      .cls-2 {
        fill: #f37d53;
      }
    </style>
  </defs>
  <g id="_02_headerbar_copy" data-name="02_headerbar copy">
    <g>
      <path class="cls-1" d="M129.92,13.45l17.5,17.97h-5.37l-15.3-15.77-3.16,2.22c-1.87,1.31-2.99,3.45-2.99,5.73v7.82h-3.95V2.28h3.95v9.71c0,.66.37,1.27.96,1.59.59.3,1.3.26,1.85-.13l15.97-11.17h7.15l-16.62,11.17Z"/>
      <path class="cls-1" d="M78.07,1.56v3.58c-.06,0-.13,0-.19,0l-1.79-3.53,1.98-.06Z"/>
      <path class="cls-1" d="M78.07,1.56l-1.98.06c.64-.05,1.3-.06,1.98-.06Z"/>
      <path class="cls-1" d="M76.09,1.62l1.79,3.53c-4.72.03-8.06,1.52-10.02,4.47-1.67,2.59-2.5,5.92-2.5,9.98v11.82h-3.94V2.21h3.94v.11c0,.66.36,1.28.94,1.61s1.29.31,1.86-.03c2.13-1.3,4.78-2.06,7.93-2.28Z"/>
      <path class="cls-1" d="M57.05,2.28v29.21h-3.94c0-.56-.3-1.08-.78-1.36s-1.08-.27-1.56.02c-2.17,1.29-4.82,1.94-7.93,1.94-3.87,0-6.93-.91-9.19-2.75-2.39-1.95-3.59-4.7-3.59-8.24V2.28h3.94v18.75c0,4.98,2.95,7.47,8.84,7.47,3.42,0,6.02-.98,7.77-2.93,1.66-1.79,2.5-4.3,2.5-7.52V2.28h3.94Z"/>
      <path class="cls-1" d="M26.04,12.67h-4.12c0-2.67-.7-4.59-2.09-5.74-1.4-1.15-3.66-1.73-6.81-1.73-2.11,0-3.89.4-5.32,1.19-1.59.96-2.39,2.23-2.39,3.82,0,2.07,1.81,3.42,5.44,4.06,1.03.2,3.15.56,6.32,1.07,6.1,1.04,9.15,3.77,9.15,8.19,0,3.11-1.44,5.44-4.3,6.99-2.12,1.12-4.85,1.68-8.19,1.68-9.17,0-13.74-4.16-13.74-12.49h4.06c0,3.15.77,5.4,2.3,6.76,1.53,1.35,4.02,2.02,7.44,2.02,2.34,0,4.26-.36,5.73-1.07,1.74-.88,2.62-2.17,2.62-3.89,0-2.1-1.86-3.58-5.6-4.42-.29-.04-2.28-.33-5.98-.9-6.21-.91-9.32-3.58-9.32-8,0-2.86,1.24-5.1,3.71-6.69,2.15-1.36,4.74-2.03,7.76-2.03,8.84,0,13.28,3.73,13.32,11.18Z"/>
    </g>
    <path class="cls-1" d="M108.54,11.04v20.38h3.94V11.04c-.65.15-1.31.24-1.98.24s-1.32-.08-1.96-.23Z"/>
    <path class="cls-1" d="M103.13,7.16c-.31-.51-.58-1.06-.78-1.65-.06-.18-.12-.36-.17-.55,0,0-.02-.01-.03-.02l-7.71,17.57c-.3.67-.94,1.11-1.67,1.13-.73.02-1.4-.39-1.73-1.03L80.53,1.56h-2.46v3.58c-.06,0-.13,0-.19,0l12.87,25.24c.32.64.98,1.03,1.69,1.03h2.12l10.06-22.46c-.58-.54-1.08-1.14-1.49-1.81Z"/>
    <path class="cls-2" d="M113.59,2.14c-.04-.08-.07-.16-.11-.23-1.15-1.88-3.62-2.48-5.5-1.32-.73.45-1.26,1.09-1.58,1.83-.31.71-.4,1.51-.26,2.28.04.21.09.42.16.63.09.26.21.52.36.76.27.45.63.82,1.02,1.11,1.22.91,2.89,1.06,4.29.3.06-.03.13-.05.19-.09.63-.39,1.11-.93,1.43-1.54.24-.45.39-.94.44-1.44.08-.77-.06-1.56-.44-2.28Z"/>
  </g>
</svg>